<svg width="19" height="19" viewBox="0 0 19 19" fill="none" xmlns="http://www.w3.org/2000/svg">
<path d="M14.2236 0.00878906H4.7613C2.13957 0.00878906 0 2.14836 0 4.77009V14.2475C0 16.8541 2.13957 18.9937 4.7613 18.9937H14.2387C16.8604 18.9937 19 16.8541 19 14.2324V4.77009C18.9849 2.14836 16.8454 0.00878906 14.2236 0.00878906ZM15.3688 8.28079V13.1325C15.3688 14.3982 14.3894 15.3775 13.1237 15.3775H5.86122C4.59556 15.3775 3.61618 14.3982 3.61618 13.1325V8.28079V5.87001C3.61618 4.60435 4.59556 3.62497 5.86122 3.62497H13.1237C14.3894 3.62497 15.3688 4.60435 15.3688 5.87001V8.28079Z" fill="white"/>
</svg>
